# xmcd
#
# Track frame offsets:
#	150
#	35020
#	53327
#	75670
#	106822
#	142100
#	166185
#	179432
#	206107
#	222117
#	245782
#
# Disc length: 3846 seconds
#
# Revision: 1
# Processed by: cddbd v1.4b42PL1 Copyright (c) Steve Scherf et al.
# Submitted via: audiograbber 1.80
#
DISCID=990f040b
DTITLE=David Pickvance - Autumn Moon
DYEAR=1900
DGENRE=
TTITLE0=Aurora
TTITLE1=Celestial Dream
TTITLE2=Autumn Breeze
TTITLE3=Moon Reflections
TTITLE4=The Dance Of Light
TTITLE5=In The Stillness of Night
TTITLE6=Earth Sounds
TTITLE7=The Autumn Moon
TTITLE8=And Shadows Fly
TTITLE9=To Ocean And Sky
TTITLE10=The Voyage Home
EXTD=
EXTT0=
EXTT1=
EXTT2=
EXTT3=
EXTT4=
EXTT5=
EXTT6=
EXTT7=
EXTT8=
EXTT9=
EXTT10=
PLAYORDER=
